<svg xmlns="http://www.w3.org/2000/svg" width="280" height="206" viewBox="0 0 280 206">
    <defs>
        <linearGradient id="a" x1="13.944%" x2="135.445%" y1="41.171%" y2="85.554%">
            <stop offset="0%" stop-color="#15DD69"/>
            <stop offset="7.55%" stop-color="#1FD178"/>
            <stop offset="21.973%" stop-color="#3AB29E"/>
            <stop offset="41.62%" stop-color="#6480DB"/>
            <stop offset="48.375%" stop-color="#746DF2"/>
            <stop offset="100%" stop-color="#B81DF5"/>
        </linearGradient>
        <linearGradient id="b" x1="16.708%" x2="85.928%" y1="9.266%" y2="93.08%">
            <stop offset="0%" stop-color="#15DD69"/>
            <stop offset="7.55%" stop-color="#1FD178"/>
            <stop offset="21.973%" stop-color="#3AB29E"/>
            <stop offset="41.62%" stop-color="#6480DB"/>
            <stop offset="48.375%" stop-color="#746DF2"/>
            <stop offset="100%" stop-color="#B81DF5"/>
        </linearGradient>
        <linearGradient id="c" x1="23.053%" x2="115.89%" y1="7.331%" y2="140.083%">
            <stop offset="0%" stop-color="#15DD69"/>
            <stop offset="7.55%" stop-color="#1FD178"/>
            <stop offset="21.973%" stop-color="#3AB29E"/>
            <stop offset="41.62%" stop-color="#6480DB"/>
            <stop offset="48.375%" stop-color="#746DF2"/>
            <stop offset="100%" stop-color="#B81DF5"/>
        </linearGradient>
    </defs>
    <g fill="none" fill-rule="evenodd">
        <path fill="url(#a)" fill-rule="nonzero" d="M154.697 107H97.075c-27.935 0-50.463 20.038-56.886 45.723-.195.783-.056 1.968-.103 2.777-.103 1.77-.188 9.52.206 15.13L40.264 204h171.243l2.343-33.337C216.27 136.251 189.09 107 154.697 107zM51.759 189.437c0 2.91-2.36 5.277-5.262 5.277-2.9 0-5.261-2.367-5.261-5.277v-36.494c0-2.91 2.36-5.278 5.261-5.278 2.902 0 5.262 2.368 5.262 5.278v36.494z"/>
        <circle cx="148" cy="172" r="6" fill="#FFF" fill-rule="nonzero"/>
        <path fill="url(#b)" fill-rule="nonzero" d="M169.388 0C155.477 8.162 150.7 23.69 150.7 23.69s-3.205 20.992-27.528 27.361c-1.836.481-3.553 1.1-5.173 1.812a22.714 22.714 0 0 1 7.465-1.263 22.67 22.67 0 0 1 20.28 12.478 6.854 6.854 0 0 1 2.38-.43c3.783 0 6.85 3.048 6.85 6.808 0 3.761-3.067 6.81-6.85 6.81-.075 0-.148-.009-.223-.011a22.253 22.253 0 0 1-1.993 6.574c.086.06.177.108.261.171 2.608-1.356 5.635-2.561 9.168-3.487 24.322-6.37 27.528-27.361 27.528-27.361S187.285 38.788 200 30.428L169.388 0z"/>
        <g fill="#000" fill-rule="nonzero">
            <path d="M125.506 52.735c8.117 0 15.416 4.497 19.047 11.736l.65 1.296 1.365-.504a5.299 5.299 0 0 1 1.84-.335c2.924 0 5.303 2.368 5.303 5.278 0 2.909-2.376 5.275-5.317 5.275h-.004l-.152-.008-1.46-.05-.2 1.44c-1.454 10.396-10.513 18.235-21.072 18.235-10.56 0-19.62-7.84-21.071-18.238l-.186-1.331-1.35-.06c-2.84-.124-5.065-2.436-5.065-5.263 0-2.91 2.379-5.278 5.302-5.278.499 0 1.002.073 1.495.217l1.291.377.61-1.194c3.656-7.15 10.927-11.593 18.974-11.593m0-1.614a22.908 22.908 0 0 0-20.419 12.475 6.945 6.945 0 0 0-1.95-.282c-3.825 0-6.925 3.086-6.925 6.892 0 3.703 2.936 6.715 6.616 6.876 1.55 11.09 11.11 19.63 22.678 19.63 11.568 0 21.127-8.537 22.677-19.626.076.003.15.012.226.012 3.824 0 6.924-3.086 6.924-6.892 0-3.806-3.1-6.892-6.924-6.892a6.92 6.92 0 0 0-2.405.436 22.908 22.908 0 0 0-20.498-12.629z"/>
            <path d="M119.413 76.593l-.003 3.048c0 .772-.63 1.397-1.406 1.397a1.401 1.401 0 0 1-1.404-1.399l.003-3.048c0-.772.63-1.397 1.406-1.396.776 0 1.404.626 1.404 1.398zM133.298 76.593l-.003 3.048c0 .772-.63 1.397-1.406 1.397a1.401 1.401 0 0 1-1.404-1.399l.003-3.048c0-.772.63-1.397 1.406-1.396.776 0 1.404.626 1.404 1.398z"/>
        </g>
        <path stroke="#000" stroke-linecap="round" stroke-width="2" d="M234 203v-54.543c0-9.051-7.468-16.457-16.595-16.457H81.595C72.468 132 65 139.406 65 148.457V203"/>
        <path fill="#000" fill-rule="nonzero" d="M46 196c-3.86 0-7-3.073-7-6.85v-36.3c0-3.777 3.14-6.85 7-6.85s7 3.073 7 6.85v36.3c0 3.777-3.14 6.85-7 6.85zm0-48.4c-2.958 0-5.364 2.356-5.364 5.25v36.3c0 2.894 2.406 5.25 5.364 5.25 2.958 0 5.364-2.356 5.364-5.25v-36.3c0-2.894-2.406-5.25-5.364-5.25z"/>
        <path fill="#000" fill-rule="nonzero" d="M34 196c-3.86 0-7-3.073-7-6.85v-36.3c0-3.777 3.14-6.85 7-6.85s7 3.073 7 6.85v36.3c0 3.777-3.14 6.85-7 6.85zm0-48.4c-2.958 0-5.364 2.356-5.364 5.25v36.3c0 2.894 2.406 5.25 5.364 5.25 2.958 0 5.364-2.356 5.364-5.25v-36.3c0-2.894-2.406-5.25-5.364-5.25z"/>
        <path fill="#000" fill-rule="nonzero" d="M21 196c-3.86 0-7-3.073-7-6.85v-36.3c0-3.777 3.14-6.85 7-6.85s7 3.073 7 6.85v36.3c0 3.777-3.14 6.85-7 6.85zm0-48.4c-2.958 0-5.364 2.356-5.364 5.25v36.3c0 2.894 2.406 5.25 5.364 5.25 2.958 0 5.364-2.356 5.364-5.25v-36.3c0-2.894-2.406-5.25-5.364-5.25z"/>
        <path fill="#000" fill-rule="nonzero" d="M55 204a26.726 26.726 0 0 0-4.127-14.093c-.113 2.76-2.415 4.973-5.235 4.973-2.893 0-5.246-2.326-5.246-5.184v-9.5a27.597 27.597 0 0 0-1.6-.776v10.276c0 2.858-2.353 5.184-5.246 5.184-2.892 0-5.246-2.326-5.246-5.184V177.02c-.266-.008-.532-.02-.8-.02s-.533.012-.8.02v12.676c0 2.858-2.353 5.184-5.245 5.184-2.893 0-5.246-2.326-5.246-5.184V179.42c-.542.244-1.077.5-1.6.776v9.501c0 2.858-2.354 5.184-5.246 5.184-2.822 0-5.123-2.213-5.236-4.973A26.726 26.726 0 0 0 0 204h55z"/>
        <path fill="#000" fill-rule="nonzero" d="M9 146c-3.86 0-7 3.073-7 6.85v36.3c0 3.777 3.14 6.85 7 6.85s7-3.073 7-6.85v-36.3c0-3.777-3.14-6.85-7-6.85zm5.364 43.15c0 2.894-2.406 5.25-5.364 5.25-2.958 0-5.364-2.356-5.364-5.25v-36.3c0-2.894 2.406-5.25 5.364-5.25 2.958 0 5.364 2.356 5.364 5.25v36.3z"/>
        <path stroke="#000" stroke-linecap="round" stroke-width="2" d="M275 204.5h-41"/>
        <path stroke="#000" stroke-linecap="round" stroke-linejoin="round" stroke-width="2" d="M245.5 39C226.998 39 212 53.998 212 72.5V106h33.5c18.502 0 33.5-14.998 33.5-33.5 0-18.502-14.998-33.5-33.5-33.5z"/>
        <path fill="url(#c)" fill-rule="nonzero" d="M245.655 53C253.69 53 259 57.51 259 63.975c0 4.282-2.051 7.26-6.012 9.614-3.737 2.184-4.777 3.573-4.777 6.353v1.503h-7.445l-.056-1.645c-.365-4.453 1.18-7.005 5.057-9.302 3.624-2.184 4.72-3.573 4.72-6.267 0-2.695-2.135-4.652-5.338-4.652-3.231 0-5.366 2.07-5.535 5.275H232C232.14 57.878 237.03 53 245.655 53zm-5.648 37.548c0-2.496 2.051-4.453 4.58-4.453 2.557 0 4.607 1.957 4.607 4.453 0 2.495-2.05 4.452-4.607 4.452-2.529 0-4.58-1.957-4.58-4.452z"/>
        <path d="M206 35h77v77h-77z"/>
    </g>
</svg>
