<svg xmlns="http://www.w3.org/2000/svg" xmlns:xlink="http://www.w3.org/1999/xlink" width="30" height="30"><defs><path d="M11.24.3C8.21.83 7.66 1.95 7.66 4.02v2.72h7.15v.91H4.97c-2.08 0-3.9 1.25-4.47 3.63-.65 2.73-.68 4.43 0 7.28.51 2.11 1.73 3.62 3.81 3.62h2.46v-3.27c.05-2.44 2.02-4.4 4.47-4.44h7.14a3.613 3.613 0 0 0 3.58-3.63V4.02c0-1.94-1.64-3.4-3.58-3.72C17.15.1 15.9 0 14.65 0c-1.14.01-2.29.1-3.41.3zm.93 3.24a1.364 1.364 0 1 1-2.73.04v-.01a1.366 1.366 0 0 1 2.73-.03z" id="a"/><linearGradient id="b" gradientUnits="userSpaceOnUse" x1="-.73" y1=".86" x2="15.64" y2="15.08"><stop offset="0%" stop-color="#5a9fd4"/><stop offset="100%" stop-color="#306998"/></linearGradient><path d="M22.85 10.83c0 2.47-2.09 4.54-4.47 4.54h-7.14a3.64 3.64 0 0 0-3.58 3.64v6.81c0 1.94 1.68 3.08 3.58 3.64 2.32.73 4.81.73 7.14 0 1.8-.52 3.58-1.57 3.58-3.64v-2.73h-7.15v-.9h10.72c2.08 0 2.86-1.46 3.58-3.63.75-2.25.72-4.4 0-7.28-.51-2.07-1.49-3.63-3.58-3.63h-2.68v3.18zm-2.63 15.43c.01.75-.59 1.37-1.35 1.38-.75.01-1.37-.59-1.38-1.34v-.03a1.35 1.35 0 0 1 1.34-1.36c.75-.01 1.37.59 1.39 1.35z" id="c"/><linearGradient id="d" gradientUnits="userSpaceOnUse" x1="21.96" y1="23.68" x2="16.12" y2="15.33"><stop offset="0%" stop-color="#ffd43b"/><stop offset="100%" stop-color="#ffe873"/></linearGradient></defs><use xlink:href="#a" fill="url(#b)"/><use xlink:href="#a" fill-opacity="0" stroke="#000" stroke-opacity="0"/><g><use xlink:href="#c" fill="url(#d)"/><use xlink:href="#c" fill-opacity="0" stroke="#000" stroke-opacity="0"/></g></svg>