<svg height="30" preserveAspectRatio="xMidYMid meet" viewBox="0 0 30 30" width="30" xmlns="http://www.w3.org/2000/svg" xmlns:xlink="http://www.w3.org/1999/xlink"><defs><path id="a" d="m11.13 23.21s-1.15.66.82.88c2.38.28 3.59.24 6.21-.26 0 0 .69.43 1.65.81-5.87 2.52-13.29-.14-8.68-1.43m-.72-3.29s-1.28.96.68 1.16c2.54.26 4.55.28 8.01-.39 0 0 .48.49 1.24.75-7.1 2.08-15 .17-9.93-1.52"/><path id="b" d="m16.46 14.35c1.45 1.67-.38 3.16-.38 3.16s3.67-1.9 1.99-4.27c-1.58-2.21-2.78-3.31 3.76-7.11 0 0-10.27 2.57-5.37 8.22"/><path id="c" d="m24.23 25.64s.85.69-.94 1.24c-3.39 1.02-14.11 1.33-17.08.04-1.07-.47.94-1.12 1.57-1.25.65-.14 1.03-.11 1.03-.11-1.19-.84-7.7 1.65-3.31 2.36 11.98 1.93 21.83-.88 18.73-2.28m-12.55-9.12s-5.45 1.29-1.93 1.76c1.49.2 4.45.15 7.21-.08 2.26-.2 4.52-.6 4.52-.6s-.79.34-1.37.74c-5.54 1.45-16.24.77-13.16-.72 2.61-1.25 4.73-1.1 4.73-1.1m9.78 5.46c5.63-2.92 3.03-5.73 1.22-5.35-.45.09-.65.17-.65.17s.16-.26.48-.37c3.59-1.26 6.35 3.73-1.16 5.7 0 0 .08-.07.11-.15"/><path id="d" d="m18.07 0s3.12 3.13-2.96 7.92c-4.87 3.85-1.11 6.04 0 8.55-2.85-2.56-4.93-4.82-3.53-6.92 2.06-3.1 7.74-4.6 6.49-9.55"/><path id="e" d="m12.23 29.91c5.4.35 13.7-.19 13.89-2.75 0 0-.38.97-4.46 1.74-4.61.86-10.3.77-13.67.21.01.01.69.57 4.24.8"/></defs><use fill="#5382a1" xlink:href="#a"/><use fill="none" xlink:href="#a"/><use fill="#e76f00" xlink:href="#b"/><use fill="none" xlink:href="#b"/><use fill="#5382a1" xlink:href="#c"/><use fill="none" xlink:href="#c"/><use fill="#e76f00" xlink:href="#d"/><use fill="none" xlink:href="#d"/><use fill="#5382a1" xlink:href="#e"/><use fill="none" xlink:href="#e"/></svg>