<svg 
 xmlns="http://www.w3.org/2000/svg"
 xmlns:xlink="http://www.w3.org/1999/xlink"
 width="30px" height="28px">
<path fill-rule="evenodd"  fill="rgb(255, 255, 255)"
 d="M7.246,9.444 L1.052,9.444 L1.052,27.130 L7.246,27.130 L7.246,9.444 ZM7.641,3.983 C7.622,2.252 6.308,0.931 4.187,0.931 C2.084,0.931 0.695,2.252 0.695,3.983 C0.695,5.679 2.028,7.035 4.111,7.035 L4.149,7.035 L4.149,7.035 C6.308,7.035 7.659,5.679 7.641,3.983 ZM29.528,16.993 C29.528,11.568 26.487,9.034 22.414,9.034 C19.073,9.034 17.608,10.801 16.801,12.014 L16.839,12.014 L16.839,9.444 L10.663,9.444 C10.663,9.444 10.738,11.104 10.663,27.130 L10.663,27.130 L16.839,27.130 L16.839,17.261 C16.839,16.726 16.895,16.208 17.045,15.815 C17.496,14.762 18.509,13.674 20.218,13.674 C22.451,13.674 23.352,15.298 23.352,17.671 L23.352,27.130 L29.528,27.130 L29.528,16.993 Z"/>
</svg>